<svg xmlns="http://www.w3.org/2000/svg" version="1.1" xmlns:xlink="http://www.w3.org/1999/xlink" xmlns:svgjs="http://svgjs.dev/svgjs" width="1440" height="560" preserveAspectRatio="none" viewBox="0 0 1440 560"><g mask="url(&quot;#SvgjsMask1025&quot;)" fill="none"><path d="M1015.346,535.161C1046.568,537.036,1074.945,515.865,1089.086,487.966C1102.05,462.388,1094.428,432.842,1079.669,408.256C1065.429,384.534,1042.972,366.645,1015.346,365.124C984.843,363.445,951.586,373.338,937.466,400.428C924.002,426.26,940.922,454.725,955.5,479.945C970.058,505.131,986.307,533.417,1015.346,535.161" fill="rgba(28, 83, 142, 0.4)" class="triangle-float1"></path><path d="M637.55,230.007C655.558,230.212,675.232,224.908,683.278,208.796C690.831,193.671,679.753,177.545,670.957,163.107C662.689,149.535,653.42,134.565,637.55,133.738C620.606,132.855,606.176,144.691,597.514,159.28C588.64,174.226,585.028,192.648,593.591,207.775C602.261,223.09,619.952,229.807,637.55,230.007" fill="rgba(28, 83, 142, 0.4)" class="triangle-float3"></path><path d="M88.626,582.009C132.383,584.536,172.95,557.098,193.531,518.4C212.989,481.813,206.441,437.601,183.931,402.809C163.346,370.993,126.511,357.094,88.626,356.259C48.915,355.384,5.376,363.904,-14.24,398.444C-33.695,432.7,-16.461,473.02,2.797,507.387C22.661,542.834,48.061,579.667,88.626,582.009" fill="rgba(28, 83, 142, 0.4)" class="triangle-float1"></path><path d="M364.295,618.667C408.777,617.745,456.84,608.062,478.61,569.26C500.059,531.029,484.186,484.571,460.064,447.968C438.624,415.434,403.239,397.023,364.295,395.794C322.788,394.484,281.002,407.369,257.45,441.573C230.389,480.873,216.82,533.317,241.469,574.173C265.579,614.135,317.633,619.634,364.295,618.667" fill="rgba(28, 83, 142, 0.4)" class="triangle-float2"></path><path d="M235.12,116.246C269.25,115.152,302.903,99.957,318.549,69.604C333.186,41.209,320.15,9.227,304.703,-18.736C288.524,-48.023,268.46,-78.601,235.12,-81.421C197.568,-84.597,160.924,-64.913,141.653,-32.527C121.961,0.567,121.4,42.656,141.887,75.265C161.243,106.074,198.754,117.411,235.12,116.246" fill="rgba(28, 83, 142, 0.4)" class="triangle-float3"></path><path d="M397.711,321.705C441.067,320.38,464.789,275.135,483.902,236.197C500.189,203.016,506.404,166.243,490.371,132.938C471.821,94.407,440.439,58.914,397.711,57.163C352.586,55.313,311.698,84.677,290.89,124.761C271.546,162.023,281.865,204.856,301.882,241.761C323.139,280.952,353.147,323.067,397.711,321.705" fill="rgba(28, 83, 142, 0.4)" class="triangle-float2"></path><path d="M1229.957,494.797C1271.877,495.005,1313.231,476.468,1333.633,439.847C1353.573,404.056,1345.295,360.703,1324.246,325.552C1303.847,291.486,1269.64,268.086,1229.957,266.711C1187.712,265.247,1145.164,282.228,1123.628,318.601C1101.729,355.586,1105.841,402.026,1128.049,438.826C1149.511,474.39,1188.42,494.591,1229.957,494.797" fill="rgba(28, 83, 142, 0.4)" class="triangle-float3"></path><path d="M430.048,303.459C472.324,301.785,509.224,278.066,531.237,241.934C554.293,204.089,566.358,155.948,542.772,118.431C520.186,82.504,472.335,77.417,430.048,80.979C394.486,83.974,366.189,105.556,346.027,135.003C321.826,170.35,294.834,212.206,313.954,250.54C334.299,291.33,384.502,305.263,430.048,303.459" fill="rgba(28, 83, 142, 0.4)" class="triangle-float3"></path></g><defs><mask id="SvgjsMask1025"><rect width="1440" height="560" fill="#ffffff"></rect></mask><style>
                @keyframes float1 {
                    0%{transform: translate(0, 0)}
                    50%{transform: translate(-10px, 0)}
                    100%{transform: translate(0, 0)}
                }

                .triangle-float1 {
                    animation: float1 5s infinite;
                }

                @keyframes float2 {
                    0%{transform: translate(0, 0)}
                    50%{transform: translate(-5px, -5px)}
                    100%{transform: translate(0, 0)}
                }

                .triangle-float2 {
                    animation: float2 4s infinite;
                }

                @keyframes float3 {
                    0%{transform: translate(0, 0)}
                    50%{transform: translate(0, -10px)}
                    100%{transform: translate(0, 0)}
                }

                .triangle-float3 {
                    animation: float3 6s infinite;
                }
            </style></defs></svg>